<?xml version="1.0" encoding="UTF-8"?>
<!DOCTYPE svg PUBLIC "-//W3C//DTD SVG 1.1//EN" "http://www.w3.org/Graphics/SVG/1.1/DTD/svg11.dtd">
<svg xmlns="http://www.w3.org/2000/svg" version="1.1" width="3000px" height="1000px" style="shape-rendering:geometricPrecision; text-rendering:geometricPrecision; image-rendering:optimizeQuality; fill-rule:evenodd; clip-rule:evenodd" xmlns:xlink="http://www.w3.org/1999/xlink">
<g><path style="opacity:0.979" fill="#212221" d="M 776.5,349.5 C 779.167,349.5 781.833,349.5 784.5,349.5C 784.5,414.167 784.5,478.833 784.5,543.5C 788.437,543.207 792.27,543.54 796,544.5C 796.5,553.494 796.666,562.494 796.5,571.5C 776.167,571.5 755.833,571.5 735.5,571.5C 735.334,562.494 735.5,553.494 736,544.5C 740,543.833 744,543.167 748,542.5C 748.5,490.168 748.667,437.834 748.5,385.5C 743.5,385.5 738.5,385.5 733.5,385.5C 733.5,376.167 733.5,366.833 733.5,357.5C 748.049,355.322 762.382,352.655 776.5,349.5 Z"/></g>
<g><path style="opacity:0.973" fill="#212221" d="M 1461.5,349.5 C 1464.17,349.5 1466.83,349.5 1469.5,349.5C 1469.5,413.5 1469.5,477.5 1469.5,541.5C 1473.55,541.605 1477.55,541.272 1481.5,540.5C 1481.5,549.833 1481.5,559.167 1481.5,568.5C 1469.09,572.202 1456.42,573.702 1443.5,573C 1440.17,568.99 1437.67,564.49 1436,559.5C 1429.58,564.294 1422.75,568.461 1415.5,572C 1402.75,576.206 1391.92,573.372 1383,563.5C 1369.29,543.647 1363.96,521.647 1367,497.5C 1368.37,480.054 1373.37,463.72 1382,448.5C 1394.48,429.172 1411.65,423.506 1433.5,431.5C 1433.5,416.167 1433.5,400.833 1433.5,385.5C 1427.8,385.625 1422.13,385.292 1416.5,384.5C 1416.17,375.475 1416.5,366.475 1417.5,357.5C 1432.33,355.031 1446.99,352.364 1461.5,349.5 Z M 1418.5,459.5 C 1423.52,459.588 1428.19,460.922 1432.5,463.5C 1433.67,486.826 1433.83,510.16 1433,533.5C 1427.94,539.411 1421.78,541.244 1414.5,539C 1409.35,533.567 1406.52,527.067 1406,519.5C 1404.45,504.529 1405.12,489.529 1408,474.5C 1409.09,467.598 1412.59,462.598 1418.5,459.5 Z"/></g>
<g><path style="opacity:0.962" fill="#212221" d="M 445.5,351.5 C 452.508,351.334 459.508,351.5 466.5,352C 470.637,352.934 474.637,354.268 478.5,356C 478.822,368.711 475.822,380.711 469.5,392C 468.167,392.667 466.833,392.667 465.5,392C 460.437,388.552 454.937,386.052 449,384.5C 444.367,385.074 442.034,387.741 442,392.5C 441.735,405.52 441.235,418.52 440.5,431.5C 449.805,430.646 459.139,430.313 468.5,430.5C 468.5,440.5 468.5,450.5 468.5,460.5C 459.5,460.5 450.5,460.5 441.5,460.5C 441.781,488.185 441.448,515.852 440.5,543.5C 447.09,543.189 453.59,543.522 460,544.5C 460.5,553.494 460.666,562.494 460.5,571.5C 437.833,571.5 415.167,571.5 392.5,571.5C 393.142,562.515 393.642,553.515 394,544.5C 397.394,543.544 400.894,543.211 404.5,543.5C 404.5,515.833 404.5,488.167 404.5,460.5C 399.5,460.5 394.5,460.5 389.5,460.5C 389.5,450.833 389.5,441.167 389.5,431.5C 393.846,431.666 398.179,431.499 402.5,431C 403,430.5 403.5,430 404,429.5C 401.299,402.591 409.466,379.757 428.5,361C 433.647,356.763 439.314,353.596 445.5,351.5 Z"/></g>
<g><path style="opacity:0.962" fill="#212221" d="M 564.5,351.5 C 571.508,351.334 578.508,351.5 585.5,352C 589.637,352.934 593.637,354.268 597.5,356C 597.822,368.711 594.822,380.711 588.5,392C 587.167,392.667 585.833,392.667 584.5,392C 579.437,388.552 573.937,386.052 568,384.5C 563.367,385.074 561.034,387.741 561,392.5C 560.735,405.52 560.235,418.52 559.5,431.5C 568.805,430.646 578.139,430.313 587.5,430.5C 587.5,440.5 587.5,450.5 587.5,460.5C 578.5,460.5 569.5,460.5 560.5,460.5C 560.781,488.185 560.448,515.852 559.5,543.5C 566.09,543.189 572.59,543.522 579,544.5C 579.5,553.494 579.666,562.494 579.5,571.5C 556.833,571.5 534.167,571.5 511.5,571.5C 512.142,562.515 512.642,553.515 513,544.5C 516.394,543.544 519.894,543.211 523.5,543.5C 523.5,515.833 523.5,488.167 523.5,460.5C 518.5,460.5 513.5,460.5 508.5,460.5C 508.5,450.833 508.5,441.167 508.5,431.5C 512.846,431.666 517.179,431.499 521.5,431C 522,430.5 522.5,430 523,429.5C 520.299,402.591 528.466,379.757 547.5,361C 552.647,356.763 558.314,353.596 564.5,351.5 Z"/></g>
<g><path style="opacity:0.962" fill="#00aeef" d="M 1856.5,351.5 C 1863.51,351.334 1870.51,351.5 1877.5,352C 1881.64,352.934 1885.64,354.268 1889.5,356C 1889.82,368.711 1886.82,380.711 1880.5,392C 1879.17,392.667 1877.83,392.667 1876.5,392C 1871.44,388.552 1865.94,386.052 1860,384.5C 1855.37,385.074 1853.03,387.741 1853,392.5C 1852.73,405.52 1852.23,418.52 1851.5,431.5C 1860.81,430.646 1870.14,430.313 1879.5,430.5C 1879.5,440.5 1879.5,450.5 1879.5,460.5C 1870.5,460.5 1861.5,460.5 1852.5,460.5C 1852.78,488.185 1852.45,515.852 1851.5,543.5C 1858.09,543.189 1864.59,543.522 1871,544.5C 1871.5,553.494 1871.67,562.494 1871.5,571.5C 1848.83,571.5 1826.17,571.5 1803.5,571.5C 1804.14,562.515 1804.64,553.515 1805,544.5C 1808.39,543.544 1811.89,543.211 1815.5,543.5C 1815.5,515.833 1815.5,488.167 1815.5,460.5C 1810.5,460.5 1805.5,460.5 1800.5,460.5C 1800.5,450.833 1800.5,441.167 1800.5,431.5C 1804.85,431.666 1809.18,431.499 1813.5,431C 1814,430.5 1814.5,430 1815,429.5C 1812.3,402.591 1820.47,379.757 1839.5,361C 1844.65,356.763 1850.31,353.596 1856.5,351.5 Z"/></g>
<g><path style="opacity:0.954" fill="#212221" d="M 656.5,355.5 C 669.995,353.496 678.162,359.163 681,372.5C 683.147,383.726 681.147,394.059 675,403.5C 661.346,413.683 651.012,411.017 644,395.5C 639.745,383.469 641.078,372.136 648,361.5C 650.671,359.098 653.505,357.098 656.5,355.5 Z"/></g>
<g><path style="opacity:0.954" fill="#212221" d="M 863.5,355.5 C 876.995,353.496 885.162,359.163 888,372.5C 890.147,383.726 888.147,394.059 882,403.5C 868.346,413.683 858.012,411.017 851,395.5C 846.745,383.469 848.078,372.136 855,361.5C 857.671,359.098 860.505,357.098 863.5,355.5 Z"/></g>
<g><path style="opacity:0.968" fill="#212221" d="M 1141.5,385.5 C 1142.5,385.5 1143.5,385.5 1144.5,385.5C 1143.93,400.827 1143.6,416.16 1143.5,431.5C 1154.81,430.644 1166.14,430.31 1177.5,430.5C 1177.52,440.847 1177.18,451.181 1176.5,461.5C 1165.52,460.649 1154.52,460.316 1143.5,460.5C 1143.03,484.899 1143.53,509.232 1145,533.5C 1147.35,538.257 1151.18,540.257 1156.5,539.5C 1163.6,538.641 1170.6,537.307 1177.5,535.5C 1179.03,544.814 1179.37,554.147 1178.5,563.5C 1160.77,572.628 1142.1,575.462 1122.5,572C 1113.1,565.701 1107.93,556.868 1107,545.5C 1106.91,517.169 1107.07,488.835 1107.5,460.5C 1102.17,460.5 1096.83,460.5 1091.5,460.5C 1092.32,451.191 1092.65,441.857 1092.5,432.5C 1097.2,432.329 1101.86,431.829 1106.5,431C 1107,430.5 1107.5,430 1108,429.5C 1108.8,420.51 1109.47,411.51 1110,402.5C 1119.91,395.631 1130.41,389.965 1141.5,385.5 Z"/></g>
<g><path style="opacity:0.965" fill="#212221" d="M 2475.5,427.5 C 2499.66,428.813 2515.16,441.146 2522,464.5C 2531.07,495.827 2527.4,525.494 2511,553.5C 2494.83,573.253 2474.66,578.753 2450.5,570C 2437.04,562.625 2428.21,551.459 2424,536.5C 2417.44,512.189 2418.44,488.189 2427,464.5C 2435.69,442.1 2451.86,429.766 2475.5,427.5 Z M 2472.5,453.5 C 2477.46,453.619 2480.96,455.952 2483,460.5C 2485.1,466.326 2486.43,472.326 2487,478.5C 2488.68,497.543 2488.01,516.543 2485,535.5C 2483.91,542.385 2480.08,546.719 2473.5,548.5C 2467.1,546.066 2463.26,541.399 2462,534.5C 2457.07,511.426 2457.4,488.426 2463,465.5C 2464.53,460.072 2467.69,456.072 2472.5,453.5 Z"/></g>
<g><path style="opacity:0.968" fill="#212221" d="M 292.5,428.5 C 312.518,426.259 326.018,434.593 333,453.5C 334.408,457.057 335.408,460.724 336,464.5C 336.5,490.165 336.667,515.831 336.5,541.5C 340.869,541.533 345.202,541.2 349.5,540.5C 349.666,549.506 349.5,558.506 349,567.5C 336.62,572.591 323.786,574.258 310.5,572.5C 308.25,568.332 305.75,564.332 303,560.5C 295.474,565.847 287.307,570.013 278.5,573C 270.287,574.816 262.954,573.149 256.5,568C 241.953,553.973 238.453,537.473 246,518.5C 257.359,495.568 275.859,485.901 301.5,489.5C 302.55,464.696 292.883,459.196 272.5,473C 268.833,476.167 265.167,479.333 261.5,482.5C 256.856,475.381 252.856,467.881 249.5,460C 260.332,444.597 274.665,434.097 292.5,428.5 Z M 290.5,513.5 C 294.5,513.5 298.5,513.5 302.5,513.5C 302.666,520.508 302.5,527.508 302,534.5C 298.434,538.954 293.768,541.62 288,542.5C 281.672,541.395 278.172,537.562 277.5,531C 278.268,522.413 282.602,516.579 290.5,513.5 Z"/></g>
<g><path style="opacity:0.96" fill="#212221" d="M 675.5,428.5 C 677.833,428.5 680.167,428.5 682.5,428.5C 682.796,466.851 682.463,505.184 681.5,543.5C 685.833,543.5 690.167,543.5 694.5,543.5C 694.5,552.5 694.5,561.5 694.5,570.5C 674.166,570.812 653.833,571.145 633.5,571.5C 633.168,562.475 633.502,553.475 634.5,544.5C 638.094,543.574 641.76,543.241 645.5,543.5C 645.5,517.5 645.5,491.5 645.5,465.5C 640.87,464.771 636.203,464.437 631.5,464.5C 631.483,455.151 631.817,445.818 632.5,436.5C 647.056,434.354 661.389,431.687 675.5,428.5 Z"/></g>
<g><path style="opacity:0.96" fill="#212221" d="M 882.5,428.5 C 884.833,428.5 887.167,428.5 889.5,428.5C 889.796,466.851 889.463,505.184 888.5,543.5C 892.833,543.5 897.167,543.5 901.5,543.5C 901.5,552.5 901.5,561.5 901.5,570.5C 881.166,570.812 860.833,571.145 840.5,571.5C 840.168,562.475 840.502,553.475 841.5,544.5C 845.094,543.574 848.76,543.241 852.5,543.5C 852.5,517.5 852.5,491.5 852.5,465.5C 847.87,464.771 843.203,464.437 838.5,464.5C 838.483,455.151 838.817,445.818 839.5,436.5C 854.056,434.354 868.389,431.687 882.5,428.5 Z"/></g>
<g><path style="opacity:0.968" fill="#212221" d="M 995.5,428.5 C 1015.52,426.259 1029.02,434.593 1036,453.5C 1037.41,457.057 1038.41,460.724 1039,464.5C 1039.5,490.165 1039.67,515.831 1039.5,541.5C 1043.87,541.533 1048.2,541.2 1052.5,540.5C 1052.67,549.506 1052.5,558.506 1052,567.5C 1039.62,572.591 1026.79,574.258 1013.5,572.5C 1011.25,568.332 1008.75,564.332 1006,560.5C 998.474,565.847 990.307,570.013 981.5,573C 973.287,574.816 965.954,573.149 959.5,568C 944.953,553.973 941.453,537.473 949,518.5C 960.359,495.568 978.859,485.901 1004.5,489.5C 1005.55,464.696 995.883,459.196 975.5,473C 971.833,476.167 968.167,479.333 964.5,482.5C 959.856,475.381 955.856,467.881 952.5,460C 963.332,444.597 977.665,434.097 995.5,428.5 Z M 993.5,513.5 C 997.5,513.5 1001.5,513.5 1005.5,513.5C 1005.67,520.508 1005.5,527.508 1005,534.5C 1001.43,538.954 996.768,541.62 991,542.5C 984.672,541.395 981.172,537.562 980.5,531C 981.268,522.413 985.602,516.579 993.5,513.5 Z"/></g>
<g><path style="opacity:0.966" fill="#212221" d="M 1267.5,428.5 C 1289.12,425.054 1303.95,433.387 1312,453.5C 1317.28,467.718 1319.28,482.385 1318,497.5C 1314.89,502.94 1311.39,508.107 1307.5,513C 1291.5,513.5 1275.5,513.667 1259.5,513.5C 1259.01,524.23 1263.01,532.73 1271.5,539C 1276.75,540.506 1282.08,540.839 1287.5,540C 1296.08,538.195 1304.41,535.695 1312.5,532.5C 1314.52,541.416 1315.68,550.416 1316,559.5C 1297.14,572.342 1276.64,576.176 1254.5,571C 1235.85,562.573 1225.35,548.073 1223,527.5C 1218.2,498.175 1223.86,471.175 1240,446.5C 1247.55,437.822 1256.72,431.822 1267.5,428.5 Z M 1270.5,455.5 C 1276.36,455.189 1280.2,457.856 1282,463.5C 1284.3,471.014 1284.97,478.681 1284,486.5C 1275.59,487.483 1267.09,487.817 1258.5,487.5C 1258.35,477.103 1260.85,467.436 1266,458.5C 1267.65,457.601 1269.15,456.601 1270.5,455.5 Z"/></g>
<g><path style="opacity:0.961" fill="#00aeef" d="M 1563.5,428.5 C 1565.83,428.5 1568.17,428.5 1570.5,428.5C 1570.78,441.868 1571.61,455.202 1573,468.5C 1577.1,455.465 1582.93,443.298 1590.5,432C 1594.13,429.082 1598.29,427.916 1603,428.5C 1609.23,428.079 1614.73,429.746 1619.5,433.5C 1618.33,448.661 1615,463.327 1609.5,477.5C 1608.83,477.833 1608.17,478.167 1607.5,478.5C 1603.35,477.421 1599.18,476.421 1595,475.5C 1590.51,476.654 1587.17,479.321 1585,483.5C 1579.88,491.851 1576.55,500.851 1575,510.5C 1574.13,521.485 1573.63,532.485 1573.5,543.5C 1579.43,543.192 1585.26,543.525 1591,544.5C 1591.5,553.494 1591.67,562.494 1591.5,571.5C 1569.83,571.5 1548.17,571.5 1526.5,571.5C 1526.5,562.5 1526.5,553.5 1526.5,544.5C 1530.2,544.448 1533.86,544.114 1537.5,543.5C 1537.67,517.165 1537.5,490.831 1537,464.5C 1532.93,463.536 1528.77,463.203 1524.5,463.5C 1524.48,454.232 1525.15,445.065 1526.5,436C 1539.03,433.794 1551.36,431.294 1563.5,428.5 Z"/></g>
<g><path style="opacity:0.966" fill="#00aeef" d="M 1703.5,428.5 C 1725.12,425.054 1739.95,433.387 1748,453.5C 1753.28,467.718 1755.28,482.385 1754,497.5C 1750.89,502.94 1747.39,508.107 1743.5,513C 1727.5,513.5 1711.5,513.667 1695.5,513.5C 1695.01,524.23 1699.01,532.73 1707.5,539C 1712.75,540.506 1718.08,540.839 1723.5,540C 1732.08,538.195 1740.41,535.695 1748.5,532.5C 1750.52,541.416 1751.68,550.416 1752,559.5C 1733.14,572.342 1712.64,576.176 1690.5,571C 1671.85,562.573 1661.35,548.073 1659,527.5C 1654.2,498.175 1659.86,471.175 1676,446.5C 1683.55,437.822 1692.72,431.822 1703.5,428.5 Z M 1706.5,455.5 C 1712.36,455.189 1716.2,457.856 1718,463.5C 1720.3,471.014 1720.97,478.681 1720,486.5C 1711.59,487.483 1703.09,487.817 1694.5,487.5C 1694.35,477.103 1696.85,467.436 1702,458.5C 1703.65,457.601 1705.15,456.601 1706.5,455.5 Z"/></g>
<g><path style="opacity:0.966" fill="#00aeef" d="M 1965.5,428.5 C 1987.12,425.054 2001.95,433.387 2010,453.5C 2015.28,467.718 2017.28,482.385 2016,497.5C 2012.89,502.94 2009.39,508.107 2005.5,513C 1989.5,513.5 1973.5,513.667 1957.5,513.5C 1957.01,524.23 1961.01,532.73 1969.5,539C 1974.75,540.506 1980.08,540.839 1985.5,540C 1994.08,538.195 2002.41,535.695 2010.5,532.5C 2012.52,541.416 2013.68,550.416 2014,559.5C 1995.14,572.342 1974.64,576.176 1952.5,571C 1933.85,562.573 1923.35,548.073 1921,527.5C 1916.2,498.175 1921.86,471.175 1938,446.5C 1945.55,437.822 1954.72,431.822 1965.5,428.5 Z M 1968.5,455.5 C 1974.36,455.189 1978.2,457.856 1980,463.5C 1982.3,471.014 1982.97,478.681 1982,486.5C 1973.59,487.483 1965.09,487.817 1956.5,487.5C 1956.35,477.103 1958.85,467.436 1964,458.5C 1965.65,457.601 1967.15,456.601 1968.5,455.5 Z"/></g>
<g><path style="opacity:0.961" fill="#00aeef" d="M 2101.5,428.5 C 2103.83,428.5 2106.17,428.5 2108.5,428.5C 2108.78,441.868 2109.61,455.202 2111,468.5C 2115.1,455.465 2120.93,443.298 2128.5,432C 2132.13,429.082 2136.29,427.916 2141,428.5C 2147.23,428.079 2152.73,429.746 2157.5,433.5C 2156.33,448.661 2153,463.327 2147.5,477.5C 2146.83,477.833 2146.17,478.167 2145.5,478.5C 2141.35,477.421 2137.18,476.421 2133,475.5C 2128.51,476.654 2125.17,479.321 2123,483.5C 2117.88,491.851 2114.55,500.851 2113,510.5C 2112.13,521.485 2111.63,532.485 2111.5,543.5C 2117.43,543.192 2123.26,543.525 2129,544.5C 2129.5,553.494 2129.67,562.494 2129.5,571.5C 2107.83,571.5 2086.17,571.5 2064.5,571.5C 2064.5,562.5 2064.5,553.5 2064.5,544.5C 2068.2,544.448 2071.86,544.114 2075.5,543.5C 2075.67,517.165 2075.5,490.831 2075,464.5C 2070.93,463.536 2066.77,463.203 2062.5,463.5C 2062.48,454.232 2063.15,445.065 2064.5,436C 2077.03,433.794 2089.36,431.294 2101.5,428.5 Z"/></g>
<g><path style="opacity:0.963" fill="#212221" d="M 2342.5,428.5 C 2354.4,427.156 2365.73,428.99 2376.5,434C 2377.98,435.299 2378.65,436.966 2378.5,439C 2377.24,450.206 2373.91,460.706 2368.5,470.5C 2367.28,471.614 2365.94,471.781 2364.5,471C 2358.29,466.642 2351.45,463.809 2344,462.5C 2338.96,463.194 2335.3,465.86 2333,470.5C 2327.35,488.775 2326.69,507.109 2331,525.5C 2334.78,537.643 2342.95,542.476 2355.5,540C 2362.05,537.874 2368.39,535.541 2374.5,533C 2377.2,541.666 2378.2,550.5 2377.5,559.5C 2362.96,570.4 2346.63,574.9 2328.5,573C 2314.07,568.908 2303.57,560.075 2297,546.5C 2290.81,530.05 2288.81,513.05 2291,495.5C 2293.08,478.586 2299.08,463.252 2309,449.5C 2318.03,438.94 2329.2,431.94 2342.5,428.5 Z"/></g>
<g><path style="opacity:0.978" fill="#212221" d="M 2612.5,428.5 C 2614.79,428.244 2616.96,428.577 2619,429.5C 2619.67,435.5 2620.33,441.5 2621,447.5C 2628.56,439.976 2637.06,433.809 2646.5,429C 2652.43,427.89 2658.09,428.556 2663.5,431C 2669.01,435.89 2673.67,441.39 2677.5,447.5C 2685.47,440.363 2694.14,434.196 2703.5,429C 2716.95,426.477 2726.79,431.31 2733,443.5C 2736.33,449.817 2738.66,456.484 2740,463.5C 2740.17,489.84 2740.67,516.173 2741.5,542.5C 2744.76,543.417 2748.09,543.751 2751.5,543.5C 2751.5,552.5 2751.5,561.5 2751.5,570.5C 2733.16,570.611 2714.83,570.945 2696.5,571.5C 2696.5,562.167 2696.5,552.833 2696.5,543.5C 2699.69,543.98 2702.52,543.314 2705,541.5C 2705.85,519.478 2705.52,497.478 2704,475.5C 2702.33,467.081 2697.5,464.581 2689.5,468C 2686.4,469.439 2683.56,471.273 2681,473.5C 2680.33,496.5 2680.33,519.5 2681,542.5C 2683.72,543.444 2686.55,543.777 2689.5,543.5C 2688.59,552.46 2688.25,561.46 2688.5,570.5C 2671.49,570.563 2654.49,570.896 2637.5,571.5C 2637.5,562.167 2637.5,552.833 2637.5,543.5C 2640.69,543.98 2643.52,543.314 2646,541.5C 2646.88,518.808 2646.55,496.142 2645,473.5C 2644.41,469.073 2641.91,466.406 2637.5,465.5C 2631.34,466.829 2626.17,469.829 2622,474.5C 2621.33,497.167 2621.33,519.833 2622,542.5C 2624.72,543.444 2627.55,543.777 2630.5,543.5C 2630.5,552.5 2630.5,561.5 2630.5,570.5C 2611.5,570.5 2592.5,570.5 2573.5,570.5C 2574.27,561.521 2574.6,552.521 2574.5,543.5C 2578.58,543.957 2582.42,543.29 2586,541.5C 2586.5,515.835 2586.67,490.169 2586.5,464.5C 2581.79,464.647 2577.12,464.314 2572.5,463.5C 2572.53,454.568 2573.2,445.734 2574.5,437C 2587.37,434.463 2600.03,431.63 2612.5,428.5 Z"/></g>
<g><path style="opacity:0.951" fill="#212221" d="M 2212.5,520.5 C 2225.59,520.084 2233.09,526.417 2235,539.5C 2236.7,549.987 2234.7,559.653 2229,568.5C 2213.61,577.978 2203.27,573.978 2198,556.5C 2194.89,543.408 2198.06,532.241 2207.5,523C 2209.31,522.243 2210.98,521.41 2212.5,520.5 Z"/></g>
<g><path style="opacity:0.929" fill="#212221" d="M 1204.5,662.5 C 1278.17,662.333 1351.83,662.5 1425.5,663C 1437.22,670.383 1446.55,680.049 1453.5,692C 1456.05,702.023 1453.05,710.023 1444.5,716C 1439.17,716.667 1433.83,716.667 1428.5,716C 1426.17,709.667 1421.83,705.333 1415.5,703C 1348.5,702.333 1281.5,702.333 1214.5,703C 1207.8,705.191 1203.8,709.691 1202.5,716.5C 1186.94,720.258 1178.28,714.258 1176.5,698.5C 1176.54,695.741 1177.04,693.075 1178,690.5C 1184.73,678.943 1193.56,669.609 1204.5,662.5 Z"/></g>
<g><path style="opacity:0.929" fill="#212221" d="M 1573.5,662.5 C 1647.17,662.333 1720.83,662.5 1794.5,663C 1806.22,670.383 1815.55,680.049 1822.5,692C 1825.05,702.023 1822.05,710.023 1813.5,716C 1808.17,716.667 1802.83,716.667 1797.5,716C 1795.17,709.667 1790.83,705.333 1784.5,703C 1717.5,702.333 1650.5,702.333 1583.5,703C 1576.8,705.191 1572.8,709.691 1571.5,716.5C 1555.94,720.258 1547.28,714.258 1545.5,698.5C 1545.54,695.741 1546.04,693.075 1547,690.5C 1553.73,678.943 1562.56,669.609 1573.5,662.5 Z"/></g>
<g><path style="opacity:0.907" fill="#212221" d="M 1043.5,719.5 C 1101.17,719.333 1158.83,719.5 1216.5,720C 1226.95,723.425 1231.11,730.592 1229,741.5C 1227.02,748.263 1222.52,752.43 1215.5,754C 1158.83,754.667 1102.17,754.667 1045.5,754C 1035.96,752.091 1031.29,746.258 1031.5,736.5C 1031.37,727.709 1035.37,722.043 1043.5,719.5 Z"/></g>
<g><path style="opacity:0.907" fill="#212221" d="M 1413.5,719.5 C 1471.17,719.333 1528.83,719.5 1586.5,720C 1597.59,724.021 1601.43,731.854 1598,743.5C 1595.53,748.989 1591.36,752.489 1585.5,754C 1528.5,754.667 1471.5,754.667 1414.5,754C 1399.91,747.893 1396.74,738.059 1405,724.5C 1407.68,722.415 1410.52,720.748 1413.5,719.5 Z"/></g>
<g><path style="opacity:0.907" fill="#212221" d="M 1782.5,719.5 C 1840.17,719.333 1897.83,719.5 1955.5,720C 1966.59,724.021 1970.43,731.854 1967,743.5C 1964.53,748.989 1960.36,752.489 1954.5,754C 1897.5,754.667 1840.5,754.667 1783.5,754C 1768.91,747.893 1765.74,738.059 1774,724.5C 1776.68,722.415 1779.52,720.748 1782.5,719.5 Z"/></g>
<g><path style="opacity:0.925" fill="#212221" d="M 1185.5,756.5 C 1190.84,756.334 1196.18,756.501 1201.5,757C 1203.75,762.915 1207.75,767.248 1213.5,770C 1281.17,770.667 1348.83,770.667 1416.5,770C 1422.25,767.248 1426.25,762.915 1428.5,757C 1443.5,753.507 1452.17,759.34 1454.5,774.5C 1454.46,777.259 1453.96,779.925 1453,782.5C 1445.91,793.257 1437.08,802.424 1426.5,810C 1352.17,810.667 1277.83,810.667 1203.5,810C 1191.27,801.78 1181.94,791.114 1175.5,778C 1175.73,769.365 1179.07,762.199 1185.5,756.5 Z"/></g>
<g><path style="opacity:0.925" fill="#212221" d="M 1554.5,756.5 C 1559.84,756.334 1565.18,756.501 1570.5,757C 1572.75,762.915 1576.75,767.248 1582.5,770C 1650.17,770.667 1717.83,770.667 1785.5,770C 1791.25,767.248 1795.25,762.915 1797.5,757C 1812.5,753.507 1821.17,759.34 1823.5,774.5C 1823.46,777.259 1822.96,779.925 1822,782.5C 1814.91,793.257 1806.08,802.424 1795.5,810C 1721.17,810.667 1646.83,810.667 1572.5,810C 1560.27,801.78 1550.94,791.114 1544.5,778C 1544.73,769.365 1548.07,762.199 1554.5,756.5 Z"/></g>
</svg>
