<?xml version="1.0" encoding="UTF-8"?>
<!DOCTYPE svg PUBLIC "-//W3C//DTD SVG 1.1//EN" "http://www.w3.org/Graphics/SVG/1.1/DTD/svg11.dtd">
<svg xmlns="http://www.w3.org/2000/svg" version="1.1" width="320px" height="320px" style="shape-rendering:geometricPrecision; text-rendering:geometricPrecision; image-rendering:optimizeQuality; fill-rule:evenodd; clip-rule:evenodd" xmlns:xlink="http://www.w3.org/1999/xlink">
<g><path style="opacity:0.999" fill="#98c94f" d="M 148.5,1.5 C 148.66,3.19919 148.494,4.86586 148,6.5C 142.16,11.1666 137.494,16.8333 134,23.5C 131.826,30.9638 133.993,36.7971 140.5,41C 147.104,42.4058 153.104,41.0724 158.5,37C 162.527,32.973 166.527,28.973 170.5,25C 179.085,22.5893 187.418,23.256 195.5,27C 200.596,31.2485 201.763,36.4151 199,42.5C 189.986,47.2206 184.986,54.5539 184,64.5C 195.296,67.4442 203.796,63.6108 209.5,53C 211.025,51.9914 212.692,51.4914 214.5,51.5C 214.201,53.604 214.534,55.604 215.5,57.5C 223.662,63.0163 223.496,68.0163 215,72.5C 214.667,74.5 214.333,76.5 214,78.5C 209.74,79.4316 207.74,82.0983 208,86.5C 205.128,89.0366 202.628,91.8699 200.5,95C 196.005,96.7796 191.338,97.9463 186.5,98.5C 188.2,101.039 189.7,103.705 191,106.5C 191.784,109.76 191.617,112.927 190.5,116C 188.956,117.187 187.289,117.52 185.5,117C 183.26,112.559 181.094,108.059 179,103.5C 174.391,101.49 169.558,100.99 164.5,102C 161.671,104.827 158.337,106.827 154.5,108C 149.654,108.189 144.988,109.189 140.5,111C 134.536,115.108 134.203,119.441 139.5,124C 146.741,126.643 149.575,131.81 148,139.5C 149.058,146.891 153.225,151.391 160.5,153C 169.703,153.294 178.869,152.794 188,151.5C 202.422,152.147 215.922,155.98 228.5,163C 236.073,171.059 238.573,180.559 236,191.5C 231.407,209.079 221.241,222.245 205.5,231C 197.56,240.273 190.393,250.106 184,260.5C 183.08,263.101 182.413,265.768 182,268.5C 181.667,276.833 181.333,285.167 181,293.5C 179.957,298.232 177.291,299.565 173,297.5C 171.912,288.225 169.578,279.225 166,270.5C 164.018,267.19 161.685,264.19 159,261.5C 156.926,251.968 155.926,242.301 156,232.5C 153.139,228.112 150.806,223.446 149,218.5C 149.333,212.833 149.667,207.167 150,201.5C 148.833,200.333 147.667,199.167 146.5,198C 137.014,195.153 129.181,189.986 123,182.5C 122.333,180.833 122.333,179.167 123,177.5C 125.403,175.695 127.07,173.362 128,170.5C 134.015,166.15 139.015,160.817 143,154.5C 146.04,148.64 144.707,144.307 139,141.5C 138.517,140.552 138.351,139.552 138.5,138.5C 136.266,138.38 134.099,138.713 132,139.5C 130.404,138.503 128.904,137.337 127.5,136C 120.29,133.486 112.957,131.153 105.5,129C 102.794,126.629 100.461,123.963 98.5,121C 96.6494,120.163 94.8161,119.329 93,118.5C 91.8942,115.274 90.0609,112.607 87.5,110.5C 86.1195,111 85.4528,112 85.5,113.5C 87.4574,117.599 89.124,121.766 90.5,126C 90.4624,129.888 89.2958,130.388 87,127.5C 84.0387,121.975 80.7054,116.642 77,111.5C 75.6011,108.637 74.6011,105.637 74,102.5C 73.8484,88.7961 74.1817,75.1295 75,61.5C 74.5348,60.0692 73.7014,58.9025 72.5,58C 64.6719,54.0047 58.6719,48.1713 54.5,40.5C 81.2627,17.0091 112.596,4.0091 148.5,1.5 Z"/></g>
<g><path style="opacity:0.991" fill="#4691cc" d="M 148.5,1.5 C 219.96,0.130596 271.794,31.1306 304,94.5C 327.44,153.224 320.44,207.89 283,258.5C 237.274,310.067 180.774,327.567 113.5,311C 55.4246,291.592 18.7579,252.259 3.5,193C -7.12581,134.554 8.54085,84.5538 50.5,43C 51.9839,42.3378 53.3172,41.5045 54.5,40.5C 58.6719,48.1713 64.6719,54.0047 72.5,58C 73.7014,58.9025 74.5348,60.0692 75,61.5C 74.1817,75.1295 73.8484,88.7961 74,102.5C 74.6011,105.637 75.6011,108.637 77,111.5C 80.7054,116.642 84.0387,121.975 87,127.5C 89.2958,130.388 90.4624,129.888 90.5,126C 89.124,121.766 87.4574,117.599 85.5,113.5C 85.4528,112 86.1195,111 87.5,110.5C 90.0609,112.607 91.8942,115.274 93,118.5C 94.8161,119.329 96.6494,120.163 98.5,121C 100.461,123.963 102.794,126.629 105.5,129C 112.957,131.153 120.29,133.486 127.5,136C 128.904,137.337 130.404,138.503 132,139.5C 134.099,138.713 136.266,138.38 138.5,138.5C 138.351,139.552 138.517,140.552 139,141.5C 144.707,144.307 146.04,148.64 143,154.5C 139.015,160.817 134.015,166.15 128,170.5C 127.07,173.362 125.403,175.695 123,177.5C 122.333,179.167 122.333,180.833 123,182.5C 129.181,189.986 137.014,195.153 146.5,198C 147.667,199.167 148.833,200.333 150,201.5C 149.667,207.167 149.333,212.833 149,218.5C 150.806,223.446 153.139,228.112 156,232.5C 155.926,242.301 156.926,251.968 159,261.5C 161.685,264.19 164.018,267.19 166,270.5C 169.578,279.225 171.912,288.225 173,297.5C 177.291,299.565 179.957,298.232 181,293.5C 181.333,285.167 181.667,276.833 182,268.5C 182.413,265.768 183.08,263.101 184,260.5C 190.393,250.106 197.56,240.273 205.5,231C 221.241,222.245 231.407,209.079 236,191.5C 238.573,180.559 236.073,171.059 228.5,163C 215.922,155.98 202.422,152.147 188,151.5C 178.869,152.794 169.703,153.294 160.5,153C 153.225,151.391 149.058,146.891 148,139.5C 149.575,131.81 146.741,126.643 139.5,124C 134.203,119.441 134.536,115.108 140.5,111C 144.988,109.189 149.654,108.189 154.5,108C 158.337,106.827 161.671,104.827 164.5,102C 169.558,100.99 174.391,101.49 179,103.5C 181.094,108.059 183.26,112.559 185.5,117C 187.289,117.52 188.956,117.187 190.5,116C 191.617,112.927 191.784,109.76 191,106.5C 189.7,103.705 188.2,101.039 186.5,98.5C 191.338,97.9463 196.005,96.7796 200.5,95C 202.628,91.8699 205.128,89.0366 208,86.5C 207.74,82.0983 209.74,79.4316 214,78.5C 214.333,76.5 214.667,74.5 215,72.5C 223.496,68.0163 223.662,63.0163 215.5,57.5C 214.534,55.604 214.201,53.604 214.5,51.5C 212.692,51.4914 211.025,51.9914 209.5,53C 203.796,63.6108 195.296,67.4442 184,64.5C 184.986,54.5539 189.986,47.2206 199,42.5C 201.763,36.4151 200.596,31.2485 195.5,27C 187.418,23.256 179.085,22.5893 170.5,25C 166.527,28.973 162.527,32.973 158.5,37C 153.104,41.0724 147.104,42.4058 140.5,41C 133.993,36.7971 131.826,30.9638 134,23.5C 137.494,16.8333 142.16,11.1666 148,6.5C 148.494,4.86586 148.66,3.19919 148.5,1.5 Z"/></g>
</svg>
