<?xml version="1.0" encoding="UTF-8"?>
<!DOCTYPE svg PUBLIC "-//W3C//DTD SVG 1.1//EN" "http://www.w3.org/Graphics/SVG/1.1/DTD/svg11.dtd">
<svg xmlns="http://www.w3.org/2000/svg" version="1.1" width="512px" height="512px" style="shape-rendering:geometricPrecision; text-rendering:geometricPrecision; image-rendering:optimizeQuality; fill-rule:evenodd; clip-rule:evenodd" xmlns:xlink="http://www.w3.org/1999/xlink">
<g><path style="opacity:0.982" fill="#05aaff" d="M 190.5,13.5 C 210.717,12.6266 228.383,18.7932 243.5,32C 247.667,36.1667 251.833,40.3333 256,44.5C 271.481,25.4263 291.481,15.093 316,13.5C 357.128,17.1276 379.295,39.4609 382.5,80.5C 382.455,95.1338 378.289,108.467 370,120.5C 335.195,156.306 300.028,191.806 264.5,227C 258.833,231.667 253.167,231.667 247.5,227C 213.667,193.167 179.833,159.333 146,125.5C 125.145,97.5255 124.145,68.8589 143,39.5C 155.63,24.9359 171.463,16.2692 190.5,13.5 Z"/></g>
<g><path style="opacity:0.979" fill="#05aaff" d="M 17.5,121.5 C 53.8949,121.019 90.2283,121.519 126.5,123C 129.549,132.598 134.049,141.431 140,149.5C 160.695,169.862 181.029,190.528 201,211.5C 201.667,213.833 201.667,216.167 201,218.5C 200.25,219.126 199.416,219.626 198.5,220C 168.333,220.167 138.167,220.333 108,220.5C 76.774,220.656 45.6073,220.156 14.5,219C 13.8095,217.933 13.3095,216.766 13,215.5C 12.3333,185.833 12.3333,156.167 13,126.5C 13.3477,123.658 14.8477,121.991 17.5,121.5 Z"/></g>
<g><path style="opacity:0.979" fill="#05aaff" d="M 388.5,121.5 C 424.562,121.019 460.562,121.519 496.5,123C 497.191,124.067 497.691,125.234 498,126.5C 498.167,141.333 498.333,156.167 498.5,171C 498.644,186.898 498.144,202.731 497,218.5C 495.933,219.191 494.766,219.691 493.5,220C 463.5,220.167 433.5,220.333 403.5,220.5C 372.749,220.66 342.083,220.16 311.5,219C 309.945,215.216 310.445,211.716 313,208.5C 333,188.5 353,168.5 373,148.5C 378.336,140.827 382.336,132.494 385,123.5C 386.302,122.915 387.469,122.249 388.5,121.5 Z"/></g>
<g><path style="opacity:0.991" fill="#05aaff" d="M 37.5,233.5 C 98.8342,233.333 160.168,233.5 221.5,234C 222.766,234.309 223.933,234.809 225,235.5C 226.159,278.942 226.659,322.442 226.5,366C 226.333,408.5 226.167,451 226,493.5C 225.691,494.766 225.191,495.933 224.5,497C 192.893,498.156 161.226,498.656 129.5,498.5C 98.8333,498.333 68.1667,498.167 37.5,498C 36.2341,497.691 35.0674,497.191 34,496.5C 32.3414,410.557 32.0081,324.557 33,238.5C 33.3477,235.658 34.8477,233.991 37.5,233.5 Z"/></g>
<g><path style="opacity:0.991" fill="#05aaff" d="M 289.5,233.5 C 350.834,233.333 412.168,233.5 473.5,234C 474.766,234.309 475.933,234.809 477,235.5C 478.159,278.942 478.659,322.442 478.5,366C 478.333,408.5 478.167,451 478,493.5C 477.691,494.766 477.191,495.933 476.5,497C 444.893,498.156 413.226,498.656 381.5,498.5C 350.833,498.333 320.167,498.167 289.5,498C 288.234,497.691 287.067,497.191 286,496.5C 284.341,410.557 284.008,324.557 285,238.5C 285.348,235.658 286.848,233.991 289.5,233.5 Z"/></g>
</svg>
