<?xml version="1.0" encoding="UTF-8"?>
<!DOCTYPE svg PUBLIC "-//W3C//DTD SVG 1.1//EN" "http://www.w3.org/Graphics/SVG/1.1/DTD/svg11.dtd">
<svg xmlns="http://www.w3.org/2000/svg" version="1.1" width="1500px" height="1404px" style="shape-rendering:geometricPrecision; text-rendering:geometricPrecision; image-rendering:optimizeQuality; fill-rule:evenodd; clip-rule:evenodd" xmlns:xlink="http://www.w3.org/1999/xlink">
<g><path style="opacity:0.996" fill="#fdfdfd" d="M 3.5,-0.5 C 152.833,-0.5 302.167,-0.5 451.5,-0.5C 577.414,168.316 703.581,336.982 830,505.5C 986.406,336.991 1142.57,168.325 1298.5,-0.5C 1342.83,-0.5 1387.17,-0.5 1431.5,-0.5C 1253.32,193.192 1074.48,386.525 895,579.5C 893.485,581.677 891.985,583.844 890.5,586C 1092.96,857.622 1295.96,1128.79 1499.5,1399.5C 1499.5,1400.83 1499.5,1402.17 1499.5,1403.5C 1350.5,1403.5 1201.5,1403.5 1052.5,1403.5C 915.499,1220.33 778.665,1036.99 642,853.5C 471.961,1036.7 302.128,1220.04 132.5,1403.5C 88.1667,1403.5 43.8333,1403.5 -0.5,1403.5C -0.5,1403.17 -0.5,1402.83 -0.5,1402.5C 194.157,1193.51 388.157,983.84 581.5,773.5C 388.4,515.746 195.733,257.746 3.5,-0.5 Z M 198.5,97.5 C 266.236,96.1673 334.069,96.1673 402,97.5C 702.923,500.345 1004.09,903.012 1305.5,1305.5C 1237.83,1306.83 1170.17,1306.83 1102.5,1305.5C 801.496,902.508 500.162,499.842 198.5,97.5 Z"/></g>
</svg>
