<?xml version="1.0" encoding="UTF-8"?>
<!DOCTYPE svg PUBLIC "-//W3C//DTD SVG 1.1//EN" "http://www.w3.org/Graphics/SVG/1.1/DTD/svg11.dtd">
<svg xmlns="http://www.w3.org/2000/svg" version="1.1" width="2148px" height="2148px" style="shape-rendering:geometricPrecision; text-rendering:geometricPrecision; image-rendering:optimizeQuality; fill-rule:evenodd; clip-rule:evenodd" xmlns:xlink="http://www.w3.org/1999/xlink">
<g><path style="opacity:1" fill="#f16521" d="M 826.5,100.5 C 827.931,100.881 828.764,101.881 829,103.5C 846.837,164.853 864.671,226.186 882.5,287.5C 953.055,266.759 1023.72,246.426 1094.5,226.5C 1202.19,595.91 1310.19,965.244 1418.5,1334.5C 1418.29,1335.09 1417.96,1335.59 1417.5,1336C 1347.47,1356.4 1277.47,1376.9 1207.5,1397.5C 1206.91,1397.29 1206.41,1396.96 1206,1396.5C 1098.6,1029.47 991.099,662.465 883.5,295.5C 882.277,294.386 880.944,294.219 879.5,295C 671.5,356 463.5,417 255.5,478C 362.907,843.794 470.241,1209.63 577.5,1575.5C 676.167,1546.5 774.833,1517.5 873.5,1488.5C 874.971,1489.38 875.804,1490.71 876,1492.5C 893.667,1552.83 911.333,1613.17 929,1673.5C 929.995,1676.13 930.328,1678.79 930,1681.5C 831.407,1710.65 732.741,1739.65 634,1768.5C 633.228,1768.36 632.561,1768.02 632,1767.5C 613.975,1705.4 595.642,1643.4 577,1581.5C 507.212,1602.24 437.379,1622.91 367.5,1643.5C 366.194,1642.09 365.36,1640.42 365,1638.5C 257.422,1271.02 149.922,903.52 42.5,536C 42.7549,534.674 43.4216,533.674 44.5,533C 113.822,512.725 183.156,492.558 252.5,472.5C 234.295,409.886 216.295,347.219 198.5,284.5C 408.105,223.739 617.438,162.406 826.5,100.5 Z"/></g>
<g><path style="opacity:0.992" fill="#00aeef" d="M 1509.5,374.5 C 1512.35,374.809 1513.85,376.475 1514,379.5C 1532.18,441.89 1550.51,504.223 1569,566.5C 1639.26,545.193 1709.59,524.86 1780,505.5C 1888.33,875.141 1996.49,1244.81 2104.5,1614.5C 2034.02,1634.7 1963.69,1655.37 1893.5,1676.5C 1912.28,1738.63 1930.28,1800.96 1947.5,1863.5C 1737.92,1924.6 1528.42,1985.94 1319,2047.5C 1300.95,1988.01 1283.28,1928.34 1266,1868.5C 1265.31,1865.59 1264.14,1862.93 1262.5,1860.5C 1193.81,1880.56 1125.14,1900.73 1056.5,1921C 1054.89,1921.72 1053.39,1921.55 1052,1920.5C 943.933,1551.47 835.766,1182.47 727.5,813.5C 798.082,791.533 869.082,770.533 940.5,750.5C 1047.83,1118.17 1155.17,1485.83 1262.5,1853.5C 1471.99,1792.96 1681.32,1731.79 1890.5,1670C 1783.27,1304.14 1675.94,938.305 1568.5,572.5C 1469.83,601.5 1371.17,630.5 1272.5,659.5C 1252.45,594.149 1232.79,528.649 1213.5,463C 1216.22,461.092 1219.22,459.759 1222.5,459C 1318.43,431.297 1414.09,403.131 1509.5,374.5 Z"/></g>
</svg>
