<?xml version="1.0" encoding="UTF-8"?>
<!DOCTYPE svg PUBLIC "-//W3C//DTD SVG 1.1//EN" "http://www.w3.org/Graphics/SVG/1.1/DTD/svg11.dtd">
<svg xmlns="http://www.w3.org/2000/svg" version="1.1" width="1010px" height="1010px" style="shape-rendering:geometricPrecision; text-rendering:geometricPrecision; image-rendering:optimizeQuality; fill-rule:evenodd; clip-rule:evenodd" xmlns:xlink="http://www.w3.org/1999/xlink">
<g><path style="opacity:1" fill="#f36621" d="M 178.5,66.5 C 309.5,66.3333 440.5,66.5 571.5,67C 615.137,111.297 657.303,156.797 698,203.5C 698.5,316.5 698.667,429.5 698.5,542.5C 686.167,542.5 673.833,542.5 661.5,542.5C 661.283,437.833 660.95,333.166 660.5,228.5C 624.832,228.667 589.165,228.5 553.5,228C 549.667,224.833 545.833,221.667 542,218.5C 541.723,178.494 541.223,138.494 540.5,98.5C 423.5,98.5 306.5,98.5 189.5,98.5C 189.667,309.167 189.5,519.834 189,730.5C 180.177,748.814 170.844,766.814 161,784.5C 157.801,788.409 155.468,787.742 154,782.5C 153.832,554.794 153.332,327.127 152.5,99.5C 155.967,84.3705 164.633,73.3705 178.5,66.5 Z"/></g>
<g><path style="opacity:0.912" fill="#f36621" d="M 839.5,133.5 C 853.647,131.072 865.814,134.739 876,144.5C 881.944,155.139 881.944,165.806 876,176.5C 875.5,199.498 875.333,222.498 875.5,245.5C 896.836,245.667 918.169,245.5 939.5,245C 943.5,243 947.5,241 951.5,239C 964.086,236.708 972.586,241.541 977,253.5C 980.828,266.759 980.161,279.759 975,292.5C 968.563,301.954 959.73,305.121 948.5,302C 945.382,300.941 942.382,299.608 939.5,298C 918.169,297.5 896.836,297.333 875.5,297.5C 875.333,321.502 875.5,345.502 876,369.5C 885.478,384.137 883.978,397.637 871.5,410C 858.963,415.866 846.296,415.866 833.5,410C 826.906,406.408 823.072,400.908 822,393.5C 820.995,383.207 822.995,373.54 828,364.5C 828.5,342.169 828.667,319.836 828.5,297.5C 807.497,297.333 786.497,297.5 765.5,298C 739.835,310.35 726.502,302.516 725.5,274.5C 724.965,265.642 726.798,257.309 731,249.5C 741.217,239.291 752.717,237.791 765.5,245C 786.497,245.5 807.497,245.667 828.5,245.5C 828.667,222.831 828.5,200.164 828,177.5C 821.278,166.554 820.278,155.22 825,143.5C 827.167,141.333 829.333,139.167 831.5,137C 834.309,135.907 836.976,134.74 839.5,133.5 Z"/></g>
<g><path style="opacity:1" fill="#f26521" d="M 840.5,136.5 C 853.124,134.359 863.957,137.693 873,146.5C 878.763,156.109 878.763,165.776 873,175.5C 872.333,199.167 872.333,222.833 873,246.5C 873.5,247 874,247.5 874.5,248C 896.5,248.667 918.5,248.667 940.5,248C 944.953,246.274 949.286,244.274 953.5,242C 965.493,240.973 972.66,246.473 975,258.5C 977.543,269.525 976.543,280.192 972,290.5C 966.955,298.409 959.788,301.242 950.5,299C 947.007,298.058 943.674,296.725 940.5,295C 918.5,294.333 896.5,294.333 874.5,295C 874,295.5 873.5,296 873,296.5C 872.333,321.167 872.333,345.833 873,370.5C 879.893,380.99 880.226,391.656 874,402.5C 868.931,409.034 862.265,412.034 854,411.5C 831.927,411.105 822.594,400.105 826,378.5C 827.383,374.066 829.05,369.732 831,365.5C 831.667,342.5 831.667,319.5 831,296.5C 830.5,296 830,295.5 829.5,295C 807.833,294.333 786.167,294.333 764.5,295C 759.833,296.667 755.167,298.333 750.5,300C 738.832,301.082 731.665,295.916 729,284.5C 727.184,272.918 728.85,261.918 734,251.5C 737.99,246.588 743.157,243.921 749.5,243.5C 754.714,244.294 759.714,245.794 764.5,248C 786.167,248.667 807.833,248.667 829.5,248C 830,247.5 830.5,247 831,246.5C 831.667,223.167 831.667,199.833 831,176.5C 829.056,172.277 827.389,167.944 826,163.5C 823.03,150.098 827.863,141.098 840.5,136.5 Z"/></g>
<g><path style="opacity:1" fill="#f36621" d="M 261.5,270.5 C 376.845,270.034 492.179,270.534 607.5,272C 615.736,272.898 620.902,277.398 623,285.5C 626.277,299.113 621.444,308.613 608.5,314C 602.883,315.052 597.216,315.718 591.5,316C 474.158,316.949 356.825,316.616 239.5,315C 227.932,306.298 224.432,295.131 229,281.5C 231.222,277.612 234.388,274.779 238.5,273C 246.304,272.068 253.971,271.235 261.5,270.5 Z"/></g>
<g><path style="opacity:1" fill="#f36621" d="M 67.5,334.5 C 84.5,334.5 101.5,334.5 118.5,334.5C 118.5,350.167 118.5,365.833 118.5,381.5C 105.829,381.333 93.1623,381.5 80.5,382C 77.8232,382.249 75.4899,383.249 73.5,385C 69.3333,388.5 65.1667,392 61,395.5C 60.3333,571.167 60.3333,746.833 61,922.5C 66.3472,928.189 72.5139,932.689 79.5,936C 93.1485,937.645 106.815,937.812 120.5,936.5C 169.667,837.5 218.833,738.5 268,639.5C 276.08,624.339 284.413,609.339 293,594.5C 297.481,588.021 302.648,582.188 308.5,577C 311.711,575.847 315.044,575.18 318.5,575C 341.821,573.953 365.155,573.286 388.5,573C 503.508,572.191 618.508,572.357 733.5,573.5C 733.5,529.5 733.5,485.5 733.5,441.5C 740.909,440.621 747.909,441.788 754.5,445C 767.524,453.014 775.357,464.514 778,479.5C 778.5,510.165 778.667,540.832 778.5,571.5C 831.501,571.333 884.501,571.5 937.5,572C 949.866,572.185 962.199,572.852 974.5,574C 987.46,578.657 993.793,587.991 993.5,602C 993.333,604.5 993.167,607 993,609.5C 934.564,727.048 873.564,843.048 810,957.5C 801.55,967.455 791.717,975.622 780.5,982C 550.836,983.54 321.169,983.873 91.5,983C 77.1268,982.891 62.7935,982.224 48.5,981C 32.851,974.018 22.0177,962.518 16,946.5C 15.3333,754.167 15.3333,561.833 16,369.5C 26.1077,347.212 43.2744,335.546 67.5,334.5 Z"/></g>
<g><path style="opacity:1" fill="#f36621" d="M 261.5,393.5 C 376.845,393.034 492.179,393.534 607.5,395C 615.736,395.898 620.902,400.398 623,408.5C 626.277,422.113 621.444,431.613 608.5,437C 602.883,438.052 597.216,438.718 591.5,439C 474.158,439.949 356.825,439.616 239.5,438C 227.932,429.298 224.432,418.131 229,404.5C 231.222,400.612 234.388,397.779 238.5,396C 246.304,395.068 253.971,394.235 261.5,393.5 Z"/></g>
</svg>
