<?xml version="1.0" encoding="UTF-8"?>
<!DOCTYPE svg PUBLIC "-//W3C//DTD SVG 1.1//EN" "http://www.w3.org/Graphics/SVG/1.1/DTD/svg11.dtd">
<svg xmlns="http://www.w3.org/2000/svg" version="1.1" width="1220px" height="1221px" style="shape-rendering:geometricPrecision; text-rendering:geometricPrecision; image-rendering:optimizeQuality; fill-rule:evenodd; clip-rule:evenodd" xmlns:xlink="http://www.w3.org/1999/xlink">
<g><path style="opacity:0.697" fill="#f46324" d="M 917.5,166.5 C 916.501,209.33 916.168,252.33 916.5,295.5C 893.251,296.35 870.084,296.35 847,295.5C 840,296.167 833,296.833 826,297.5C 758.377,295.781 690.543,294.781 622.5,294.5C 567.433,294.727 512.266,294.727 457,294.5C 446.772,294.513 436.772,295.18 427,296.5C 415.828,295.489 404.995,294.822 394.5,294.5C 391.966,295.776 389.466,296.11 387,295.5C 386.072,297.335 384.906,297.668 383.5,296.5C 382.171,299.695 380.505,300.028 378.5,297.5C 377.23,298.562 376.063,299.562 375,300.5C 374.667,300.167 374.333,299.833 374,299.5C 372.184,301.441 370.184,302.108 368,301.5C 366.055,302.863 363.888,303.697 361.5,304C 360.874,304.75 360.374,305.584 360,306.5C 359.667,306.167 359.333,305.833 359,305.5C 358,306.5 357,307.5 356,308.5C 355.586,308.043 355.086,307.709 354.5,307.5C 345.591,313.849 336.757,321.182 328,329.5C 327.667,330.5 327.333,331.5 327,332.5C 326.667,332.167 326.333,331.833 326,331.5C 325.499,334.667 323.833,337.001 321,338.5C 320.667,339.833 320.333,341.167 320,342.5C 319.667,342.167 319.333,341.833 319,341.5C 318.237,344.47 316.737,346.97 314.5,349C 315.647,351.085 314.98,352.585 312.5,353.5C 308.267,363.178 305.267,373.345 303.5,384C 303.585,385.107 303.919,386.107 304.5,387C 303.643,387.689 302.977,388.522 302.5,389.5C 303.649,521.679 303.816,654.346 303,787.5C 301.519,788.471 300.685,789.804 300.5,791.5C 254.537,845.072 207.87,898.072 160.5,950.5C 159.5,873.503 159.167,796.503 159.5,719.5C 139.131,719.913 118.797,719.413 98.5,718C 52.281,706.112 25.1144,676.612 17,629.5C 16.3333,470.833 16.3333,312.167 17,153.5C 24.727,109.44 49.8936,80.6067 92.5,67C 98.3917,65.355 104.392,64.355 110.5,64C 351.833,63.3333 593.167,63.3333 834.5,64C 879.436,75.602 906.603,104.102 916,149.5C 917.029,155.123 917.529,160.79 917.5,166.5 Z"/></g>
<g><path style="opacity:0.999" fill="#f46425" d="M 917.5,166.5 C 917.5,209.5 917.5,252.5 917.5,295.5C 983.843,295.118 1050.18,295.618 1116.5,297C 1154.16,303.587 1180.66,324.42 1196,359.5C 1199.27,367.906 1201.6,376.573 1203,385.5C 1203.67,544.167 1203.67,702.833 1203,861.5C 1195.87,903.62 1172.37,932.12 1132.5,947C 1125.62,948.976 1118.62,950.309 1111.5,951C 1060.5,951.5 1009.5,951.667 958.5,951.5C 958.833,1028.5 958.5,1105.5 957.5,1182.5C 889.392,1105.8 821.392,1028.97 753.5,952C 639.502,950.95 525.502,950.283 411.5,950C 362.157,950.291 327.99,927.791 309,882.5C 305.895,873.745 303.895,864.745 303,855.5C 302.667,833.833 302.333,812.167 302,790.5C 301.617,791.056 301.117,791.389 300.5,791.5C 300.685,789.804 301.519,788.471 303,787.5C 303.816,654.346 303.649,521.679 302.5,389.5C 302.977,388.522 303.643,387.689 304.5,387C 303.919,386.107 303.585,385.107 303.5,384C 305.267,373.345 308.267,363.178 312.5,353.5C 314.98,352.585 315.647,351.085 314.5,349C 316.737,346.97 318.237,344.47 319,341.5C 319.333,341.833 319.667,342.167 320,342.5C 320.333,341.167 320.667,339.833 321,338.5C 323.833,337.001 325.499,334.667 326,331.5C 326.333,331.833 326.667,332.167 327,332.5C 327.333,331.5 327.667,330.5 328,329.5C 336.757,321.182 345.591,313.849 354.5,307.5C 355.086,307.709 355.586,308.043 356,308.5C 357,307.5 358,306.5 359,305.5C 359.333,305.833 359.667,306.167 360,306.5C 360.374,305.584 360.874,304.75 361.5,304C 363.888,303.697 366.055,302.863 368,301.5C 370.184,302.108 372.184,301.441 374,299.5C 374.333,299.833 374.667,300.167 375,300.5C 376.063,299.562 377.23,298.562 378.5,297.5C 380.505,300.028 382.171,299.695 383.5,296.5C 384.906,297.668 386.072,297.335 387,295.5C 389.466,296.11 391.966,295.776 394.5,294.5C 404.995,294.822 415.828,295.489 427,296.5C 436.772,295.18 446.772,294.513 457,294.5C 512.266,294.727 567.433,294.727 622.5,294.5C 690.543,294.781 758.377,295.781 826,297.5C 833,296.833 840,296.167 847,295.5C 870.084,296.35 893.251,296.35 916.5,295.5C 916.168,252.33 916.501,209.33 917.5,166.5 Z"/></g>
<g><path style="opacity:1" fill="#e9e8e8" d="M 515.5,694.5 C 513.485,693.076 511.152,692.41 508.5,692.5C 478.367,679.605 464.534,656.605 467,623.5C 472.453,595.383 488.953,577.549 516.5,570C 555.078,566.873 579.245,584.039 589,621.5C 592.296,658.449 576.463,682.616 541.5,694C 532.705,695.645 524.038,695.811 515.5,694.5 Z"/></g>
<g><path style="opacity:1" fill="#e9e8e8" d="M 740.5,694.5 C 738.485,693.076 736.152,692.41 733.5,692.5C 709.662,682.893 695.829,665.227 692,639.5C 690.174,613.321 700.007,592.821 721.5,578C 742.017,567.006 762.684,566.673 783.5,577C 812.881,597.821 821.381,625.321 809,659.5C 794.168,686.999 771.335,698.665 740.5,694.5 Z"/></g>
<g><path style="opacity:1" fill="#e9e8e8" d="M 965.5,694.5 C 963.485,693.076 961.152,692.41 958.5,692.5C 936.345,683.888 922.845,667.888 918,644.5C 914.122,616.431 923.622,594.264 946.5,578C 971.796,565.027 995.796,567.027 1018.5,584C 1039.52,604.919 1045.02,629.419 1035,657.5C 1020.59,686.29 997.42,698.623 965.5,694.5 Z"/></g>
<g><path style="opacity:1" fill="#f0ac8f" d="M 958.5,692.5 C 961.152,692.41 963.485,693.076 965.5,694.5C 962.848,694.59 960.515,693.924 958.5,692.5 Z"/></g>
<g><path style="opacity:1" fill="#efb095" d="M 508.5,692.5 C 511.152,692.41 513.485,693.076 515.5,694.5C 512.848,694.59 510.515,693.924 508.5,692.5 Z"/></g>
<g><path style="opacity:1" fill="#efae91" d="M 733.5,692.5 C 736.152,692.41 738.485,693.076 740.5,694.5C 737.848,694.59 735.515,693.924 733.5,692.5 Z"/></g>
</svg>
